<?xml version="1.0" encoding="iso-8859-1"?>
<!-- Generator: Adobe Illustrator 19.0.0, SVG Export Plug-In . SVG Version: 6.00 Build 0)  -->
<svg version="1.1" id="Capa_1" xmlns="http://www.w3.org/2000/svg" xmlns:xlink="http://www.w3.org/1999/xlink" x="0px" y="0px"
	 viewBox="0 0 480 480" style="enable-background:new 0 0 480 480;" xml:space="preserve">
<path style="fill:#B5DEF3;" d="M64,332h160l0,0v32l0,0H64c-8.837,0-16-7.163-16-16S55.163,332,64,332z"/>
<path style="fill:#7D8F9F;" d="M412.296,292L440,212l27.704,80H412.296z"/>
<circle style="fill:#EC7422;" cx="240" cy="148" r="96"/>
<g>
	<path style="fill:#8D9AA5;" d="M8,268h80v208H8V268z"/>
	<path style="fill:#8D9AA5;" d="M152,300h48v176h-48V300z"/>
	<path style="fill:#8D9AA5;" d="M320,476h-64V332l64-40V476z"/>
	<path style="fill:#8D9AA5;" d="M408,476V308c0.002-8.486,3.374-16.624,9.376-22.624c12.496-12.492,32.752-12.492,45.248,0
		c6.002,6,9.374,14.138,9.376,22.624v168H408z"/>
</g>
<g>
	<path style="fill:#FEBD4A;" d="M232,4h16v24h-16V4z"/>
	<path style="fill:#FEBD4A;" d="M132.521,51.835l11.315-11.312l16.968,16.973L149.49,68.808L132.521,51.835z"/>
	<path style="fill:#FEBD4A;" d="M96,140h24v16H96V140z"/>
	<path style="fill:#FEBD4A;" d="M132.52,244.167l16.971-16.971l11.314,11.314l-16.971,16.971L132.52,244.167z"/>
	<path style="fill:#FEBD4A;" d="M232,268h16v24h-16V268z"/>
	<path style="fill:#FEBD4A;" d="M319.195,238.539l11.315-11.312l16.968,16.973l-11.315,11.312L319.195,238.539z"/>
	<path style="fill:#FEBD4A;" d="M360,140h24v16h-24V140z"/>
	<path style="fill:#FEBD4A;" d="M319.2,57.508l16.971-16.971l11.314,11.314l-16.971,16.971L319.2,57.508z"/>
</g>
<g>
	<path style="fill:#B5DEF3;" d="M414.64,428H408v-32h-24c-17.673,0-32,14.327-32,32H249.36c-13.115-0.287-24.205,9.645-25.36,22.712
		c-0.711,13.236,9.442,24.542,22.677,25.253c0.44,0.024,0.882,0.035,1.323,0.035h168c13.255,0.019,24.015-10.711,24.035-23.965
		c0.001-0.441-0.011-0.882-0.035-1.323C438.845,437.645,427.755,427.713,414.64,428z"/>
	<path style="fill:#B5DEF3;" d="M272,364H120v32H56c-8.837,0-16,7.163-16,16s7.163,16,16,16h111.6c9.057,0,16.4-7.343,16.4-16.4V396
		h88c8.837,0,16-7.163,16-16S280.837,364,272,364z"/>
</g>
<g>
	<path style="fill:#88D0EF;" d="M408,92h72v16h-72V92z"/>
	<path style="fill:#88D0EF;" d="M376,92h16v16h-16V92z"/>
	<path style="fill:#88D0EF;" d="M424,124h32v16h-32V124z"/>
	<path style="fill:#88D0EF;" d="M0,180h104v16H0V180z"/>
	<path style="fill:#88D0EF;" d="M32,212h56v16H32V212z"/>
	<path style="fill:#88D0EF;" d="M432,308h16v16h-16V308z"/>
	<path style="fill:#88D0EF;" d="M432,340h16v16h-16V340z"/>
	<path style="fill:#88D0EF;" d="M432,372h16v16h-16V372z"/>
</g>
<g>
</g>
<g>
</g>
<g>
</g>
<g>
</g>
<g>
</g>
<g>
</g>
<g>
</g>
<g>
</g>
<g>
</g>
<g>
</g>
<g>
</g>
<g>
</g>
<g>
</g>
<g>
</g>
<g>
</g>
</svg>
