<?xml version="1.0" encoding="iso-8859-1"?>
<!-- Generator: Adobe Illustrator 19.0.0, SVG Export Plug-In . SVG Version: 6.00 Build 0)  -->
<svg version="1.1" id="Capa_1" xmlns="http://www.w3.org/2000/svg" xmlns:xlink="http://www.w3.org/1999/xlink" x="0px" y="0px"
	 viewBox="0 0 464 464" style="enable-background:new 0 0 464 464;" xml:space="preserve">
<circle style="fill:#FFBB4A;" cx="232" cy="232" r="152"/>
<circle style="fill:#EC7422;" cx="232" cy="232" r="112"/>
<g>
	<path style="fill:#FFD884;" d="M416,200l48,32l-48,32V200z"/>
	<path style="fill:#FFD884;" d="M339.48,79.264l56.568-11.312l-11.312,56.568L339.48,79.264z"/>
	<path style="fill:#FFD884;" d="M200,48l32-48l32,48H200z"/>
	<path style="fill:#FFD884;" d="M79.264,124.52L67.952,67.952l56.568,11.312L79.264,124.52z"/>
	<path style="fill:#FFD884;" d="M124.52,384.736l-56.568,11.312l11.312-56.568L124.52,384.736z"/>
	<path style="fill:#FFD884;" d="M384.736,339.48l11.312,56.568l-56.568-11.312L384.736,339.48z"/>
	<path style="fill:#FFD884;" d="M48,264L0,232l48-32V264z"/>
	<path style="fill:#FFD884;" d="M264,416l-32,48l-32-48H264z"/>
</g>
<g>
</g>
<g>
</g>
<g>
</g>
<g>
</g>
<g>
</g>
<g>
</g>
<g>
</g>
<g>
</g>
<g>
</g>
<g>
</g>
<g>
</g>
<g>
</g>
<g>
</g>
<g>
</g>
<g>
</g>
</svg>
