<?xml version="1.0" encoding="iso-8859-1"?>
<!-- Generator: Adobe Illustrator 19.0.0, SVG Export Plug-In . SVG Version: 6.00 Build 0)  -->
<svg version="1.1" id="Capa_1" xmlns="http://www.w3.org/2000/svg" xmlns:xlink="http://www.w3.org/1999/xlink" x="0px" y="0px"
	 viewBox="0 0 463.692 463.692" style="enable-background:new 0 0 463.692 463.692;" xml:space="preserve">
<path style="fill:#C7CAC7;" d="M439.692,174.553h-72c-13.255,0-24-10.745-24-24s10.745-24,24-24h16c13.255,0,24-10.745,24-24
	s-10.745-24-24-24h-192c-13.255,0-24,10.745-24,24s10.745,24,24,24h80c13.255,0,24,10.745,24,24s-10.745,24-24,24h-24
	c-13.255,0-24,10.745-24,24s10.745,24,24,24h192c13.255,0,24-10.745,24-24S452.947,174.553,439.692,174.553L439.692,174.553z"/>
<g>
	<path style="fill:#FFBF41;" d="M207.692,318.553h-40l24-64l-88,88h41.712l-25.712,72L207.692,318.553z"/>
	<path style="fill:#FFBF41;" d="M375.692,318.553h-40l24-64l-88,88h41.712l-25.712,72L375.692,318.553z"/>
</g>
<g>
	<path style="fill:#C9EBF4;" d="M232.095,323.984l16.016-47.998l15.17,5.062l-16.016,47.998L232.095,323.984z"/>
	<path style="fill:#C9EBF4;" d="M208.108,396.02l16.016-47.998l15.17,5.062l-16.016,47.998L208.108,396.02z"/>
	<path style="fill:#C9EBF4;" d="M192.136,443.986l8.007-23.995l15.17,5.062l-8.007,23.995L192.136,443.986z"/>
	<path style="fill:#C9EBF4;" d="M400.101,332.034l16.016-47.998l15.17,5.062l-16.016,47.998L400.101,332.034z"/>
	<path style="fill:#C9EBF4;" d="M376.098,403.991l16.016-47.998l15.17,5.062l-16.016,47.998L376.098,403.991z"/>
	<path style="fill:#C9EBF4;" d="M360.101,452.036l8.007-23.995l15.17,5.062l-8.007,23.995L360.101,452.036z"/>
	<path style="fill:#C9EBF4;" d="M64.099,332.037l16.016-47.998l15.17,5.062l-16.016,47.998L64.099,332.037z"/>
	<path style="fill:#C9EBF4;" d="M40.096,403.993l16.016-47.998l15.17,5.062l-16.016,47.998L40.096,403.993z"/>
	<path style="fill:#C9EBF4;" d="M24.067,452.039l8.007-23.995l15.17,5.062l-8.007,23.995L24.067,452.039z"/>
</g>
<path style="fill:#7D8F9F;" d="M247.692,86.553C247.671,42.37,211.837,6.57,167.654,6.591c-26.318,0.013-50.946,12.969-65.866,34.65
	c-20.456-7.936-43.472,2.214-51.407,22.67c-1.811,4.668-2.723,9.636-2.689,14.642c0.011,2.855,0.328,5.7,0.944,8.488
	c-30.659,4.07-52.213,32.224-48.143,62.883c3.68,27.717,27.239,48.472,55.199,48.629h192c30.928,0,56-25.072,56-56
	S278.62,86.553,247.692,86.553z"/>
<g>
</g>
<g>
</g>
<g>
</g>
<g>
</g>
<g>
</g>
<g>
</g>
<g>
</g>
<g>
</g>
<g>
</g>
<g>
</g>
<g>
</g>
<g>
</g>
<g>
</g>
<g>
</g>
<g>
</g>
</svg>
