<?xml version="1.0" encoding="iso-8859-1"?>
<!-- Generator: Adobe Illustrator 19.0.0, SVG Export Plug-In . SVG Version: 6.00 Build 0)  -->
<svg version="1.1" id="Capa_1" xmlns="http://www.w3.org/2000/svg" xmlns:xlink="http://www.w3.org/1999/xlink" x="0px" y="0px"
	 viewBox="0 0 464 464" style="enable-background:new 0 0 464 464;" xml:space="preserve">
<path style="fill:#7D8F9F;" d="M440,160.035H248c-13.255,0-24,10.745-24,24s10.745,24,24,24h-56c-13.255,0-24,10.745-24,24
	c0,13.255,10.745,24,24,24h192c13.255,0,24-10.745,24-24c0-13.255-10.745-24-24-24h56c13.255,0,24-10.745,24-24
	S453.255,160.035,440,160.035z"/>
<path style="fill:#C7CAC7;" d="M339.712,115.747c-7.501-7.499-17.673-11.712-28.28-11.712H296c0.19-26.319-20.991-47.809-47.31-48
	c-2.394-0.017-4.785,0.146-7.154,0.488C224.16,15.901,177.143-2.944,136.52,14.432C111.837,24.99,94.096,47.224,89.28,73.635
	c-1.812,10.063-1.703,20.378,0.32,30.4h-7.888c-21.028-0.353-38.939,15.202-41.536,36.072
	c-2.169,21.985,13.894,41.565,35.879,43.735c1.311,0.129,2.628,0.194,3.945,0.193H24c-13.255,0-24,10.745-24,24s10.745,24,24,24h224
	c13.255,0,24-10.745,24-24s-10.745-24-24-24h63.432c22.091,0,40-17.909,39.999-40.001
	C351.431,133.424,347.216,123.249,339.712,115.747z"/>
<path style="fill:#FFBF41;" d="M160,288.035h-55.432l31.432-88l-120,120h55.432l-31.432,88L160,288.035z"/>
<g>
	<path style="fill:#8D9AA5;" d="M208,280.035h168v16H208V280.035z"/>
	<path style="fill:#8D9AA5;" d="M240,312.035h136v16H240V312.035z"/>
	<path style="fill:#8D9AA5;" d="M264,344.035h104v16H264V344.035z"/>
	<path style="fill:#8D9AA5;" d="M280,376.035h72v16h-72V376.035z"/>
	<path style="fill:#8D9AA5;" d="M288,408.035h48v16h-48V408.035z"/>
	<path style="fill:#8D9AA5;" d="M280,440.035h32v16h-32V440.035z"/>
</g>
<g>
</g>
<g>
</g>
<g>
</g>
<g>
</g>
<g>
</g>
<g>
</g>
<g>
</g>
<g>
</g>
<g>
</g>
<g>
</g>
<g>
</g>
<g>
</g>
<g>
</g>
<g>
</g>
<g>
</g>
</svg>
