<?xml version="1.0" encoding="iso-8859-1"?>
<!-- Generator: Adobe Illustrator 19.0.0, SVG Export Plug-In . SVG Version: 6.00 Build 0)  -->
<svg version="1.1" id="Capa_1" xmlns="http://www.w3.org/2000/svg" xmlns:xlink="http://www.w3.org/1999/xlink" x="0px" y="0px"
	 viewBox="0 0 464 464" style="enable-background:new 0 0 464 464;" xml:space="preserve">
<circle style="fill:#EC7422;" cx="376" cy="144.035" r="56"/>
<path style="fill:#B5DEF3;" d="M440,176.035H248c-13.255,0-24,10.745-24,24s10.745,24,24,24h-56c-13.255,0-24,10.745-24,24
	c0,13.255,10.745,24,24,24h192c13.255,0,24-10.745,24-24c0-13.255-10.745-24-24-24h56c13.255,0,24-10.745,24-24
	S453.255,176.035,440,176.035L440,176.035z"/>
<path style="fill:#88D0EF;" d="M339.712,131.747c-7.501-7.499-17.673-11.712-28.28-11.712H296c0.19-26.319-20.991-47.809-47.31-48
	c-2.394-0.017-4.785,0.146-7.154,0.488C224.16,31.901,177.143,13.056,136.52,30.432C111.837,40.99,94.096,63.224,89.28,89.635
	c-1.812,10.063-1.703,20.378,0.32,30.4h-7.888c-21.028-0.353-38.939,15.202-41.536,36.072
	c-2.169,21.985,13.894,41.565,35.879,43.735c1.311,0.129,2.628,0.194,3.945,0.193H24c-13.255,0-24,10.745-24,24s10.745,24,24,24h224
	c13.255,0,24-10.745,24-24s-10.745-24-24-24h63.432c22.091,0,40-17.909,39.999-40.001
	C351.431,149.424,347.216,139.249,339.712,131.747z"/>
<g>
	<path style="fill:#C9EBF4;" d="M166.64,325.107L144,338.179v-26.144h-16v26.144l-22.64-13.072l-8,13.856L120,352.035l-22.64,13.072
		l8,13.856L128,365.891v26.144h16v-26.144l22.64,13.072l8-13.856L152,352.035l22.64-13.072L166.64,325.107z"/>
	<path style="fill:#C9EBF4;" d="M294.32,373.107l-22.648,13.072v-26.144h-16v26.144l-22.64-13.072l-8,13.856l22.64,13.072
		l-22.64,13.072l8,13.856l22.64-13.072v26.144h16v-26.144l22.648,13.072l8-13.856l-22.64-13.072l22.64-13.072L294.32,373.107z"/>
	<path style="fill:#C9EBF4;" d="M406.76,322.963l-8-13.856l-22.64,13.072v-26.144h-16v26.144l-22.64-13.072l-8,13.856l22.64,13.072
		l-22.64,13.072l8,13.856l22.64-13.072v26.144h16v-26.144l22.64,13.072l8-13.856l-22.64-13.072L406.76,322.963z"/>
</g>
<g>
</g>
<g>
</g>
<g>
</g>
<g>
</g>
<g>
</g>
<g>
</g>
<g>
</g>
<g>
</g>
<g>
</g>
<g>
</g>
<g>
</g>
<g>
</g>
<g>
</g>
<g>
</g>
<g>
</g>
</svg>
