<?xml version="1.0" encoding="iso-8859-1"?>
<!-- Generator: Adobe Illustrator 19.0.0, SVG Export Plug-In . SVG Version: 6.00 Build 0)  -->
<svg version="1.1" id="Capa_1" xmlns="http://www.w3.org/2000/svg" xmlns:xlink="http://www.w3.org/1999/xlink" x="0px" y="0px"
	 viewBox="0 0 464 464" style="enable-background:new 0 0 464 464;" xml:space="preserve">
<path style="fill:#88D0EF;" d="M339.712,143.747c-7.501-7.499-17.673-11.712-28.28-11.712H296c0.19-26.319-20.991-47.809-47.31-48
	c-2.394-0.017-4.785,0.146-7.154,0.488C224.16,43.901,177.143,25.056,136.52,42.432c-24.683,10.558-42.425,32.793-47.24,59.203
	c-1.812,10.063-1.703,20.378,0.32,30.4h-7.888c-21.028-0.353-38.939,15.202-41.536,36.072
	c-2.169,21.985,13.894,41.565,35.879,43.735c1.311,0.129,2.628,0.194,3.945,0.193H24c-13.255,0-24,10.745-24,24
	c0,13.255,10.745,24,24,24h224c13.255,0,24-10.745,24-24c0-13.255-10.745-24-24-24h63.432c22.091,0,40-17.909,39.999-40.001
	C351.431,161.424,347.216,151.249,339.712,143.747z"/>
<g>
	<path style="fill:#C9EBF4;" d="M56,292.035h16v48H56V292.035z"/>
	<path style="fill:#C9EBF4;" d="M56,356.035h16v16H56V356.035z"/>
	<path style="fill:#C9EBF4;" d="M104,340.035h16v48h-16V340.035z"/>
	<path style="fill:#C9EBF4;" d="M104,404.035h16v16h-16V404.035z"/>
	<path style="fill:#C9EBF4;" d="M152,300.035h16v48h-16V300.035z"/>
	<path style="fill:#C9EBF4;" d="M152,364.035h16v16h-16V364.035z"/>
	<path style="fill:#C9EBF4;" d="M200,340.035h16v48h-16V340.035z"/>
	<path style="fill:#C9EBF4;" d="M248,308.035h16v48h-16V308.035z"/>
	<path style="fill:#C9EBF4;" d="M248,372.035h16v16h-16V372.035z"/>
	<path style="fill:#C9EBF4;" d="M296,348.035h16v48h-16V348.035z"/>
	<path style="fill:#C9EBF4;" d="M344,308.035h16v48h-16V308.035z"/>
	<path style="fill:#C9EBF4;" d="M344,372.035h16v16h-16V372.035z"/>
	<path style="fill:#C9EBF4;" d="M392,348.035h16v48h-16V348.035z"/>
	<path style="fill:#C9EBF4;" d="M200,404.035h16v16h-16V404.035z"/>
	<path style="fill:#C9EBF4;" d="M296,412.035h16v16h-16V412.035z"/>
	<path style="fill:#C9EBF4;" d="M392,412.035h16v16h-16V412.035z"/>
</g>
<path style="fill:#7D8F9F;" d="M440,188.035H248c-13.255,0-24,10.745-24,24s10.745,24,24,24h-56c-13.255,0-24,10.745-24,24
	s10.745,24,24,24h192c13.255,0,24-10.745,24-24s-10.745-24-24-24h56c13.255,0,24-10.745,24-24S453.255,188.035,440,188.035
	L440,188.035z"/>
<g>
</g>
<g>
</g>
<g>
</g>
<g>
</g>
<g>
</g>
<g>
</g>
<g>
</g>
<g>
</g>
<g>
</g>
<g>
</g>
<g>
</g>
<g>
</g>
<g>
</g>
<g>
</g>
<g>
</g>
</svg>
