<?xml version="1.0" encoding="iso-8859-1"?>
<!-- Generator: Adobe Illustrator 19.0.0, SVG Export Plug-In . SVG Version: 6.00 Build 0)  -->
<svg version="1.1" id="Capa_1" xmlns="http://www.w3.org/2000/svg" xmlns:xlink="http://www.w3.org/1999/xlink" x="0px" y="0px"
	 viewBox="0 0 464 464" style="enable-background:new 0 0 464 464;" xml:space="preserve">
<circle style="fill:#EC7422;" cx="208" cy="212" r="88"/>
<g>
	<path style="fill:#B5DEF3;" d="M144,196h-8c0-22.4-17.6-40-40-40s-40,17.6-40,40H24c-13.6,0-24,10.4-24,24s10.4,24,24,24h120
		c13.6,0,24-10.4,24-24S157.6,196,144,196z"/>
	<path style="fill:#B5DEF3;" d="M440,348h-64c-13.6,0-24-10.4-24-24s10.4-24,24-24h16c13.6,0,24-10.4,24-24s-10.4-24-24-24H200
		c-13.6,0-24,10.4-24,24s10.4,24,24,24h80c13.6,0,24,10.4,24,24s-10.4,24-24,24h-24c-13.6,0-24,10.4-24,24s10.4,24,24,24h184
		c13.6,0,24-10.4,24-24S453.6,348,440,348z"/>
</g>
<g>
	<path style="fill:#FFBF41;" d="M200,68h16v32h-16V68z"/>
	<path style="fill:#FFBF41;" d="M100.673,115.854l11.315-11.312l22.624,22.63l-11.315,11.312L100.673,115.854z"/>
	<path style="fill:#FFBF41;" d="M64,204h32v16H64V204z"/>
	<path style="fill:#FFBF41;" d="M100.522,308.011l22.627-22.627l11.314,11.314l-22.627,22.627L100.522,308.011z"/>
	<path style="fill:#FFBF41;" d="M320,204h32v16h-32V204z"/>
	<path style="fill:#FFBF41;" d="M281.546,127.3l22.627-22.627l11.314,11.314l-22.627,22.627L281.546,127.3z"/>
</g>
<g>
</g>
<g>
</g>
<g>
</g>
<g>
</g>
<g>
</g>
<g>
</g>
<g>
</g>
<g>
</g>
<g>
</g>
<g>
</g>
<g>
</g>
<g>
</g>
<g>
</g>
<g>
</g>
<g>
</g>
</svg>
