<?xml version="1.0" encoding="iso-8859-1"?>
<!-- Generator: Adobe Illustrator 19.0.0, SVG Export Plug-In . SVG Version: 6.00 Build 0)  -->
<svg version="1.1" id="Capa_1" xmlns="http://www.w3.org/2000/svg" xmlns:xlink="http://www.w3.org/1999/xlink" x="0px" y="0px"
	 viewBox="0 0 472 472" style="enable-background:new 0 0 472 472;" xml:space="preserve">
<g>
	<path style="fill:#EC7422;" d="M432,160.035c0,30.928-25.072,56-56,56c-30.928,0-56-25.072-56-56s25.072-56,56-56
		c30.808-0.12,55.88,24.759,56,55.567C432.001,159.747,432.001,159.891,432,160.035z"/>
	<path style="fill:#EC7422;" d="M368,64.035h16v16h-16V64.035z"/>
	<path style="fill:#EC7422;" d="M321.069,80.901l13.856-8l8,13.856l-13.856,8L321.069,80.901z"/>
	<path style="fill:#EC7422;" d="M441.278,113.103l13.857-7.999l7.999,13.857l-13.857,7.999L441.278,113.103z"/>
	<path style="fill:#EC7422;" d="M409.069,86.72l7.999-13.857l13.857,7.999l-7.999,13.857L409.069,86.72z"/>
	<path style="fill:#EC7422;" d="M456,152.035h16v16h-16V152.035z"/>
</g>
<path style="fill:#B5DEF3;" d="M440,200.035H248c-13.255,0-24,10.745-24,24s10.745,24,24,24h-56c-13.255,0-24,10.745-24,24
	c0,13.255,10.745,24,24,24h191.704c13.418,0,24.296-10.878,24.296-24.296v-23.704h32c13.255,0,24-10.745,24-24
	S453.255,200.035,440,200.035L440,200.035z"/>
<path style="fill:#88D0EF;" d="M339.712,147.747c-7.501-7.499-17.673-11.712-28.28-11.712H296c0.19-26.319-20.991-47.809-47.31-48
	c-2.394-0.017-4.785,0.146-7.154,0.488C224.16,47.901,177.143,29.056,136.52,46.432c-24.683,10.558-42.425,32.793-47.24,59.203
	c-1.812,10.063-1.703,20.378,0.32,30.4h-7.888c-21.028-0.353-38.939,15.202-41.536,36.072
	c-2.169,21.985,13.894,41.565,35.879,43.735c1.311,0.129,2.628,0.194,3.945,0.193H24c-13.255,0-24,10.745-24,24s10.745,24,24,24h224
	c13.255,0,24-10.745,24-24s-10.745-24-24-24h63.432c22.091,0,40-17.909,39.999-40.001
	C351.431,165.424,347.216,155.249,339.712,147.747z"/>
<g>
	<path style="fill:#C9EBF4;" d="M64,296.035h16v48H64V296.035z"/>
	<path style="fill:#C9EBF4;" d="M64,360.035h16v16H64V360.035z"/>
	<path style="fill:#C9EBF4;" d="M128,360.035h16v16h-16V360.035z"/>
	<path style="fill:#C9EBF4;" d="M128,392.035h16v16h-16V392.035z"/>
	<path style="fill:#C9EBF4;" d="M248,320.035h16v48h-16V320.035z"/>
	<path style="fill:#C9EBF4;" d="M248,384.035h16v16h-16V384.035z"/>
	<path style="fill:#C9EBF4;" d="M312,384.035h16v16h-16V384.035z"/>
	<path style="fill:#C9EBF4;" d="M312,416.035h16v16h-16V416.035z"/>
	<path style="fill:#C9EBF4;" d="M400,320.035h16v32h-16V320.035z"/>
	<path style="fill:#C9EBF4;" d="M400,368.035h16v16h-16V368.035z"/>
</g>
<g>
</g>
<g>
</g>
<g>
</g>
<g>
</g>
<g>
</g>
<g>
</g>
<g>
</g>
<g>
</g>
<g>
</g>
<g>
</g>
<g>
</g>
<g>
</g>
<g>
</g>
<g>
</g>
<g>
</g>
</svg>
